<svg width="24" height="24" viewBox="0 0 24 24" fill="none" xmlns="http://www.w3.org/2000/svg">
<path d="M13.374 0.504189C12.603 -0.168063 11.397 -0.168063 10.626 0.504189L0.93896 8.95062C0.3396 9.47323 0 10.2004 0 10.961V21.2333C0 22.7613 1.34314 24 3 24H6C7.65686 24 9 22.7613 9 21.2333V16.6221C9 16.1129 9.44772 15.7 10 15.7H14C14.5523 15.7 15 16.1129 15 16.6221V21.2333C15 22.7613 16.3432 24 18 24H21C22.6568 24 24 22.7613 24 21.2333V10.961C24 10.2004 23.6604 9.47323 23.061 8.95062L13.374 0.504189Z" fill="white"/>
</svg>
