<svg width="50" height="50" viewBox="0 0 50 50" fill="none" xmlns="http://www.w3.org/2000/svg">
<circle cx="25" cy="25" r="25" fill="#4EDBD5"/>
<path d="M26.374 13.5042C25.603 12.8319 24.397 12.8319 23.626 13.5042L13.939 21.9506C13.3396 22.4732 13 23.2004 13 23.961V34.2333C13 35.7613 14.3431 37 16 37H19C20.6569 37 22 35.7613 22 34.2333V29.6221C22 29.1129 22.4477 28.7 23 28.7H27C27.5523 28.7 28 29.1129 28 29.6221V34.2333C28 35.7613 29.3432 37 31 37H34C35.6568 37 37 35.7613 37 34.2333V23.961C37 23.2004 36.6604 22.4732 36.061 21.9506L26.374 13.5042Z" fill="white"/>
</svg>
