<svg width="50" height="50" viewBox="0 0 50 50" fill="none" xmlns="http://www.w3.org/2000/svg">
<circle cx="25" cy="25" r="25" fill="#21A29D"/>
<path d="M35 21H33V17C33 12.582 29.418 9 25 9C20.582 9 17 12.582 17 17V21H15C13.8945 21 13 21.8945 13 23V39C13 40.1055 13.8945 41 15 41H35C36.1055 41 37 40.1055 37 39V23C37 21.8945 36.1055 21 35 21ZM25 33C23.8945 33 23 32.1055 23 31C23 29.8945 23.8945 29 25 29C26.1055 29 27 29.8945 27 31C27 32.1055 26.1055 33 25 33ZM29 21H21V17C21 14.791 22.791 13 25 13C27.209 13 29 14.791 29 17V21Z" fill="white"/>
</svg>
