<svg width="26" height="26" viewBox="0 0 26 26" fill="none" xmlns="http://www.w3.org/2000/svg">
<path d="M7.60014 2.95C6.70014 3.4 6.40014 4.6 7.00014 5.2C7.75014 3.85 8.95014 4.3 10.7501 5.8C11.9501 6.85 13.6001 5.95 13.6001 5.95C13.6001 5.95 13.9001 7.75 16.1501 8.05C18.7001 8.35 19.6001 6.85 19.6001 6.85C19.6001 6.85 20.2001 8.35 22.4501 7.45C24.1001 6.85 23.5001 5.8 23.5001 5.8C23.5001 5.8 25.0001 5.8 25.0001 4.75C25.0001 3.4 23.3501 3.55 23.3501 3.55C23.3501 3.55 23.6501 2.05 22.0001 1.9C20.5001 1.75 20.0501 2.65 20.0501 2.65C20.0501 2.65 19.6001 1 17.3501 1C15.2501 1 14.5001 2.95 14.5001 2.95C14.5001 2.95 13.9001 2.05 12.1001 2.05C10.7501 2.05 10.1501 3.1 10.1501 3.1C10.1501 3.1 8.50014 2.35 7.60014 2.95Z" fill="white" stroke="white" stroke-width="2"/>
<path d="M19 19.15V16L13 19.15V16H9.4L8.5 5.5H5.5L4.6 16H1V25H25V16L19 19.15ZM10 22H4V19H10V22Z" fill="white" stroke="white" stroke-width="2"/>
</svg>
