<svg width="50" height="50" viewBox="0 0 50 50" fill="none" xmlns="http://www.w3.org/2000/svg">
<circle cx="25" cy="25" r="25" fill="#21A29D"/>
<path d="M19.5997 14.95C18.6997 15.4 18.3997 16.6 18.9997 17.2C19.7497 15.85 20.9497 16.3 22.7497 17.8C23.9497 18.85 25.5997 17.95 25.5997 17.95C25.5997 17.95 25.8997 19.75 28.1497 20.05C30.6997 20.35 31.5997 18.85 31.5997 18.85C31.5997 18.85 32.1997 20.35 34.4497 19.45C36.0997 18.85 35.4997 17.8 35.4997 17.8C35.4997 17.8 36.9997 17.8 36.9997 16.75C36.9997 15.4 35.3497 15.55 35.3497 15.55C35.3497 15.55 35.6497 14.05 33.9997 13.9C32.4997 13.75 32.0497 14.65 32.0497 14.65C32.0497 14.65 31.5997 13 29.3497 13C27.2497 13 26.4997 14.95 26.4997 14.95C26.4997 14.95 25.8997 14.05 24.0997 14.05C22.7497 14.05 22.1497 15.1 22.1497 15.1C22.1497 15.1 20.4997 14.35 19.5997 14.95Z" fill="white" stroke="white" stroke-width="2"/>
<path d="M31 31.15V28L25 31.15V28H21.4L20.5 17.5H17.5L16.6 28H13V37H37V28L31 31.15ZM22 34H16V31H22V34Z" fill="white" stroke="white" stroke-width="2"/>
</svg>
